<?xml version="1.0" standalone="no"?>
<!DOCTYPE svg PUBLIC "-//W3C//DTD SVG 20010904//EN"
 "http://www.w3.org/TR/2001/REC-SVG-20010904/DTD/svg10.dtd">
<svg version="1.0" xmlns="http://www.w3.org/2000/svg"
 width="300.000000pt" height="281.000000pt" viewBox="0 0 300.000000 281.000000"
 preserveAspectRatio="xMidYMid meet">
<metadata>
Created by potrace 1.16, written by Peter Selinger 2001-2019
</metadata>
<g transform="translate(0.000000,281.000000) scale(0.100000,-0.100000)"
fill="#000000" stroke="none">
<path d="M1512 2663 c-46 -9 -67 -75 -102 -328 -32 -235 -27 -215 -60 -215
-20 0 -30 5 -30 15 0 11 -7 14 -22 11 -13 -3 -52 -7 -88 -11 -36 -3 -84 -8
-107 -11 l-43 -6 0 -83 c0 -46 -4 -85 -9 -87 -14 -4 6 -220 26 -290 15 -53 15
-63 -2 -145 -17 -84 -21 -91 -71 -143 -30 -31 -54 -65 -54 -76 0 -12 12 -38
26 -59 l26 -38 -42 -40 c-30 -29 -45 -55 -56 -96 -17 -60 -34 -86 -74 -114
-21 -14 -22 -17 -6 -17 44 0 84 39 112 112 17 42 45 90 72 119 40 45 72 62 72
40 0 -11 109 -131 119 -131 4 0 5 19 3 43 l-3 42 31 -55 c49 -87 100 -132 211
-185 l99 -48 105 53 c112 55 149 89 199 184 l26 49 0 -48 0 -49 31 30 c17 16
46 50 66 76 l34 48 22 -20 c11 -11 24 -20 28 -20 11 0 58 51 64 71 6 18 7 18
27 -1 11 -10 42 -28 67 -40 77 -35 95 -47 119 -80 36 -53 30 -95 -22 -146 -29
-29 -38 -44 -27 -44 35 0 79 38 96 83 31 81 -8 143 -117 187 -47 18 -74 39
-145 116 l-88 94 -21 101 c-20 93 -21 104 -7 137 8 20 20 96 26 169 11 129 12
133 34 133 22 0 23 3 23 85 0 77 -2 85 -19 85 -27 0 -35 29 -14 53 21 23 81
54 137 72 34 11 37 13 15 14 -15 1 -45 -5 -67 -13 l-40 -14 -21 56 c-12 31
-32 70 -45 86 l-24 29 -15 -28 -14 -28 -26 56 c-47 104 -140 183 -242 208 -27
6 -55 18 -61 25 -22 28 -73 38 -132 27z m-266 -821 c66 -30 74 -41 41 -59 -25
-13 -29 -10 67 -43 l60 -20 28 27 c21 20 28 36 28 64 l0 37 40 -10 40 -10 0
-144 0 -144 -52 0 c-49 0 -60 -5 -159 -74 -140 -96 -140 -96 -96 -48 20 23 37
45 37 50 0 4 -26 28 -58 54 -51 41 -60 53 -71 100 -23 97 -26 194 -7 223 20
31 27 31 102 -3z m582 -99 l32 -5 0 -61 c0 -61 0 -62 -57 -119 l-56 -57 -54
42 -53 42 0 89 0 88 78 -6 c42 -4 92 -10 110 -13z m-167 -385 c44 -26 55 -48
39 -78 -16 -30 -39 -24 -80 20 -33 36 -42 40 -83 40 -41 0 -51 -5 -87 -42 -33
-35 -44 -41 -58 -32 -9 6 -18 22 -20 35 -2 20 4 27 32 37 19 7 40 19 46 27 9
11 34 15 92 15 64 0 87 -4 119 -22z"/>
<path d="M885 2646 c41 -18 82 -68 94 -114 39 -150 42 -164 33 -175 -6 -7 -20
-41 -32 -76 l-21 -64 33 -28 c42 -36 48 -36 48 0 0 16 9 59 21 96 l20 67 -20
48 c-11 26 -23 67 -27 91 -11 69 -39 115 -87 144 -24 14 -55 25 -68 25 -22 -1
-22 -2 6 -14z"/>
<path d="M2398 2453 c-8 -10 -20 -33 -27 -52 -17 -52 -59 -101 -105 -122 l-41
-19 36 0 c64 0 145 87 164 178 7 35 -4 42 -27 15z"/>
<path d="M590 399 l0 -120 33 3 c29 3 32 6 35 41 3 33 6 37 32 37 26 0 29 -4
32 -37 3 -35 6 -38 36 -41 l32 -3 0 54 c0 35 -5 59 -14 66 -9 8 -12 24 -9 50
7 54 -19 71 -109 71 l-68 0 0 -121z m108 39 c-5 -34 -38 -37 -38 -4 0 20 5 26
21 26 15 0 20 -5 17 -22z"/>
<path d="M837 513 c-9 -8 -9 -180 -1 -210 5 -17 14 -23 35 -23 l29 0 1 68 c0
64 1 66 16 45 18 -26 51 -30 59 -8 13 33 24 12 24 -46 l0 -60 33 3 32 3 0 115
0 115 -32 3 c-29 3 -36 -2 -54 -32 -12 -20 -25 -36 -30 -36 -5 0 -17 16 -26
35 -14 29 -22 35 -48 35 -18 0 -35 -3 -38 -7z"/>
<path d="M1120 399 l0 -120 33 3 c31 3 32 4 33 53 0 28 5 50 10 50 17 1 54
-53 54 -80 0 -24 3 -26 33 -23 l32 3 0 115 0 115 -32 3 c-32 3 -33 2 -33 -37
0 -23 -2 -41 -5 -41 -3 0 -21 18 -41 40 -23 25 -45 40 -60 40 -24 0 -24 0 -24
-121z"/>
<path d="M1440 435 c0 -106 17 -155 55 -155 20 0 29 8 41 35 18 44 27 44 39 3
8 -26 16 -34 38 -36 39 -5 57 42 57 153 l0 86 -32 -3 c-33 -3 -33 -3 -38 -68
-4 -49 -7 -60 -13 -42 -5 14 -17 22 -32 22 -14 0 -26 -8 -31 -22 -6 -17 -9 -5
-11 45 l-4 67 -34 0 -35 0 0 -85z"/>
<path d="M1720 401 l0 -121 35 0 c34 0 35 1 35 40 0 38 2 40 29 40 27 0 30 -3
33 -37 3 -35 6 -38 36 -41 l32 -3 0 53 c0 30 -5 59 -12 66 -7 7 -11 29 -10 50
4 59 -7 66 -98 70 l-80 4 0 -121z m108 37 c-2 -13 -10 -23 -18 -23 -8 0 -16
10 -18 23 -3 17 2 22 18 22 16 0 21 -5 18 -22z"/>
<path d="M1970 401 l0 -121 90 0 90 0 0 65 0 65 -30 0 c-28 0 -30 -3 -30 -35
0 -31 -3 -35 -25 -35 -24 0 -24 2 -27 88 l-3 87 -32 3 -33 3 0 -120z"/>
<path d="M2200 400 l0 -120 64 0 c67 0 115 12 128 33 4 7 8 46 8 87 0 41 -4
80 -8 87 -13 21 -61 33 -128 33 l-64 0 0 -120z m125 0 c0 -53 -1 -55 -27 -58
-28 -3 -28 -3 -28 58 0 61 0 61 28 58 26 -3 27 -5 27 -58z"/>
<path d="M23 50 c-17 -40 -18 -50 -7 -50 8 0 14 7 14 15 0 8 9 15 20 15 11 0
20 -7 20 -15 0 -8 7 -15 14 -15 12 0 11 9 -6 50 -11 28 -24 50 -27 50 -4 0
-17 -22 -28 -50z m33 -7 c-11 -11 -19 6 -11 24 8 17 8 17 12 0 3 -10 2 -21 -1
-24z"/>
<path d="M135 93 c13 -11 15 -41 4 -70 -8 -21 -6 -23 25 -23 37 0 62 22 50 42
-5 7 -8 22 -9 33 0 16 -8 21 -40 23 -22 1 -35 -1 -30 -5z m58 -18 c1 -5 -6
-11 -15 -13 -11 -2 -18 3 -18 13 0 17 30 18 33 0z m5 -42 c-4 -23 -32 -23 -36
0 -2 12 3 17 18 17 15 0 20 -5 18 -17z"/>
<path d="M378 92 c14 -9 13 -60 -1 -79 -7 -9 -4 -13 10 -13 16 0 19 5 15 26
-4 22 -2 25 19 22 18 -2 23 -9 22 -26 -2 -12 3 -22 10 -22 8 0 12 17 12 50 0
31 -4 50 -12 50 -6 0 -9 -9 -6 -20 4 -16 0 -20 -22 -20 -22 0 -26 4 -22 20 4
15 0 20 -16 20 -15 0 -18 -3 -9 -8z"/>
<path d="M543 83 c-3 -10 -12 -33 -19 -50 -11 -28 -11 -33 2 -33 7 0 14 7 14
15 0 8 9 15 20 15 11 0 20 -7 20 -15 0 -8 5 -15 11 -15 6 0 9 6 6 12 -2 7 -10
30 -18 51 -14 40 -26 47 -36 20z m27 -29 c0 -8 -6 -14 -14 -14 -9 0 -12 7 -9
20 6 22 23 18 23 -6z"/>
<path d="M645 50 c0 -39 3 -50 16 -50 9 0 15 8 15 20 -1 27 17 29 29 2 5 -12
13 -22 18 -22 4 0 5 5 1 11 -4 7 -7 28 -8 48 -1 34 -3 36 -36 39 l-35 3 0 -51z
m55 25 c0 -8 -7 -15 -15 -15 -8 0 -15 7 -15 15 0 8 7 15 15 15 8 0 15 -7 15
-15z"/>
<path d="M837 94 c-14 -15 -6 -35 18 -44 14 -5 25 -16 25 -25 0 -18 -21 -20
-39 -3 -11 11 -13 10 -9 -2 6 -21 42 -24 57 -6 16 19 7 34 -27 47 -19 8 -23
12 -13 22 9 9 16 9 32 -2 18 -10 20 -10 17 1 -5 14 -50 23 -61 12z"/>
<path d="M956 54 c-19 -56 -19 -54 -6 -54 6 0 10 7 10 15 0 8 9 15 20 15 11 0
20 -7 20 -15 0 -8 6 -15 14 -15 12 0 11 9 -4 47 -10 26 -22 49 -28 51 -5 1
-17 -18 -26 -44z m32 -13 c-15 -5 -21 7 -13 26 7 17 8 17 15 -2 4 -11 3 -22
-2 -24z"/>
<path d="M1075 50 c0 -29 4 -50 10 -50 6 0 10 16 8 38 l-3 37 19 -40 18 -40
17 39 c19 46 30 44 17 -2 -8 -27 -7 -32 7 -32 14 0 17 10 17 50 0 41 -3 50
-17 50 -10 0 -18 -4 -18 -9 0 -5 -5 -22 -11 -38 l-11 -28 -15 38 c-21 53 -38
47 -38 -13z"/>
<path d="M1251 63 c-8 -21 -16 -44 -18 -50 -3 -7 0 -13 6 -13 6 0 11 7 11 15
0 8 9 15 20 15 11 0 20 -7 20 -15 0 -8 6 -15 14 -15 12 0 11 9 -4 47 -10 26
-22 49 -27 50 -5 2 -15 -14 -22 -34z m27 -22 c-15 -5 -21 7 -13 26 7 17 8 17
15 -2 4 -11 3 -22 -2 -24z"/>
<path d="M1365 50 c0 -42 3 -50 18 -50 34 0 57 20 57 48 0 35 -16 52 -49 52
-24 0 -26 -3 -26 -50z m60 20 c7 -23 -12 -63 -28 -57 -7 2 -13 20 -15 40 -3
31 0 37 17 37 11 0 22 -9 26 -20z"/>
<path d="M1485 50 c0 -39 3 -50 16 -50 12 0 15 7 11 25 -3 20 0 25 16 25 27 0
37 -17 22 -35 -10 -12 -9 -15 6 -15 16 0 19 8 19 50 0 42 -3 50 -19 50 -14 0
-16 -3 -7 -13 13 -17 5 -27 -22 -27 -14 0 -18 5 -14 20 4 14 0 20 -11 20 -14
0 -17 -10 -17 -50z"/>
<path d="M1641 63 c-7 -21 -15 -44 -17 -50 -3 -7 1 -13 10 -13 10 0 13 6 10
15 -5 11 1 15 21 15 20 0 26 -4 21 -15 -3 -9 0 -15 8 -15 12 0 11 9 -2 50 -9
28 -21 50 -27 50 -7 0 -17 -17 -24 -37z m39 -15 c0 -5 -7 -8 -15 -8 -17 0 -18
2 -9 25 5 13 8 14 15 3 5 -7 9 -16 9 -20z"/>
<path d="M1755 50 c0 -32 4 -50 12 -50 8 0 10 11 6 35 -7 44 0 44 27 -1 26
-41 36 -36 42 24 3 33 0 42 -13 42 -12 0 -15 -8 -12 -32 l4 -33 -20 25 c-11
14 -21 28 -21 33 0 4 -6 7 -12 7 -9 0 -13 -17 -13 -50z"/>
<path d="M1956 63 c1 -21 -2 -43 -8 -50 -8 -10 -6 -13 9 -13 16 0 19 5 15 26
-4 22 -2 25 19 22 18 -2 24 -9 23 -26 0 -12 4 -22 10 -22 7 0 11 21 11 50 0
31 -4 50 -12 50 -6 0 -9 -9 -6 -20 4 -16 0 -20 -22 -20 -22 0 -26 4 -22 20 3
12 0 20 -8 20 -8 0 -11 -12 -9 -37z"/>
<path d="M2089 59 c11 -79 71 -79 82 0 4 33 2 41 -10 41 -12 0 -16 -11 -16
-42 0 -32 -4 -43 -15 -43 -11 0 -15 11 -15 43 0 31 -4 42 -16 42 -12 0 -14 -8
-10 -41z"/>
<path d="M2231 63 c-7 -21 -15 -44 -17 -50 -3 -7 1 -13 10 -13 10 0 13 6 10
15 -5 11 1 15 21 15 20 0 26 -4 21 -15 -3 -9 0 -15 8 -15 12 0 11 9 -2 50 -9
28 -21 50 -27 50 -7 0 -17 -17 -24 -37z m39 -15 c0 -5 -7 -8 -15 -8 -17 0 -18
2 -9 25 5 13 8 14 15 3 5 -7 9 -16 9 -20z"/>
<path d="M2421 63 c-7 -21 -15 -44 -17 -50 -3 -7 -1 -13 5 -13 6 0 11 7 11 15
0 8 9 15 20 15 11 0 20 -7 20 -15 0 -8 6 -15 14 -15 12 0 11 9 -4 47 -10 26
-22 49 -27 50 -5 2 -15 -13 -22 -34z m39 -15 c0 -5 -7 -8 -15 -8 -15 0 -20 21
-8 33 7 7 23 -11 23 -25z"/>
<path d="M2546 54 c-19 -56 -19 -54 -6 -54 6 0 10 7 10 15 0 8 9 15 20 15 11
0 20 -7 20 -15 0 -8 6 -15 14 -15 12 0 11 9 -4 47 -10 26 -22 49 -28 51 -5 1
-17 -18 -26 -44z m30 -11 c-11 -11 -19 6 -11 24 8 17 8 17 12 0 3 -10 2 -21
-1 -24z"/>
<path d="M2667 94 c-14 -15 -6 -35 18 -44 14 -5 25 -16 25 -25 0 -18 -21 -20
-38 -3 -9 9 -12 9 -12 1 0 -15 33 -25 54 -17 25 10 19 32 -15 50 -23 12 -28
19 -20 27 9 9 17 8 32 -2 18 -10 20 -10 17 1 -5 14 -50 23 -61 12z"/>
<path d="M2791 63 c-7 -21 -15 -44 -17 -50 -3 -7 -1 -13 5 -13 6 0 11 7 11 15
0 8 9 15 20 15 11 0 20 -7 20 -15 0 -8 6 -15 14 -15 12 0 11 9 -4 47 -10 26
-22 49 -27 50 -5 2 -15 -13 -22 -34z m27 -22 c-15 -5 -21 7 -13 26 7 17 8 17
15 -2 4 -11 3 -22 -2 -24z"/>
<path d="M2905 50 c0 -32 4 -50 12 -50 8 0 10 11 6 35 -7 44 0 44 27 -1 25
-40 35 -37 35 9 1 18 4 38 8 45 6 8 2 12 -11 12 -15 0 -18 -6 -15 -32 l4 -33
-20 25 c-11 14 -21 28 -21 33 0 4 -6 7 -12 7 -9 0 -13 -17 -13 -50z"/>
</g>
</svg>
